<svg width="108" height="105" viewBox="0 0 108 105" fill="none" xmlns="http://www.w3.org/2000/svg">
<g clip-path="url(#clip0_7_2)">
<rect width="108" height="105" fill="#EB3800"/>
<path d="M39.632 40.528C40.4427 40.528 41.232 40.656 42 40.912C44.176 43.5573 45.6693 48.144 46.48 54.672C47.2907 61.1573 47.696 67.6 47.696 74L36.176 74.96C36.176 65.1467 35.8133 56.208 35.088 48.144C29.4133 50.2347 25.6373 58.9813 23.76 74.384L17.424 74.96L14.16 43.216L27.856 41.104L26.448 52.368H27.024C28.7307 48.656 30.672 45.7547 32.848 43.664C35.024 41.5733 37.2853 40.528 39.632 40.528ZM58.522 33.68C64.794 31.76 70.682 30.8 76.186 30.8C81.7327 30.8 86.1487 31.824 89.434 33.872C90.1593 36.048 90.522 38.1387 90.522 40.144C90.522 44.624 88.602 48.2933 84.762 51.152C87.194 53.0293 89.0927 55.1627 90.458 57.552C91.866 59.9413 92.57 62.16 92.57 64.208C92.57 67.5787 91.0127 70.3307 87.898 72.464C84.7833 74.5973 79.9193 75.664 73.306 75.664C69.5513 75.664 65.8393 75.408 62.17 74.896L58.522 33.68ZM69.018 70.16C71.3647 70.8 73.6047 71.12 75.738 71.12C77.8713 71.12 79.2793 70.992 79.962 70.736C81.4553 67.7493 82.202 64.7413 82.202 61.712C82.202 58.64 81.498 56.016 80.09 53.84C77.53 54.992 74.3087 56.016 70.426 56.912L69.018 70.16ZM80.154 42.384C80.154 41.0187 79.8553 39.632 79.258 38.224C78.6607 36.7733 77.8287 35.6853 76.762 34.96C75.7807 34.96 74.4153 35.216 72.666 35.728L70.81 53.264C73.6687 52.112 75.93 50.5333 77.594 48.528C79.3007 46.48 80.154 44.432 80.154 42.384Z" fill="#F8F8F8"/>
</g>
<defs>
<clipPath id="clip0_7_2">
<rect width="108" height="105" fill="white"/>
</clipPath>
</defs>
</svg>
