<svg width="276" height="105" viewBox="0 0 276 105" fill="none" xmlns="http://www.w3.org/2000/svg">
<g clip-path="url(#clip0_1_229)">
<rect width="276" height="105" fill="#EB3800"/>
<path d="M39.632 40.528C40.4427 40.528 41.232 40.656 42 40.912C44.176 43.5573 45.6693 48.144 46.48 54.672C47.2907 61.1573 47.696 67.6 47.696 74L36.176 74.96C36.176 65.1467 35.8133 56.208 35.088 48.144C29.4133 50.2347 25.6373 58.9813 23.76 74.384L17.424 74.96L14.16 43.216L27.856 41.104L26.448 52.368H27.024C28.7307 48.656 30.672 45.7547 32.848 43.664C35.024 41.5733 37.2853 40.528 39.632 40.528ZM60.89 75.472C60.1647 75.472 59.6313 75.4507 59.29 75.408C57.8393 74.4267 56.666 72.976 55.77 71.056C54.9167 69.0933 54.49 67.0667 54.49 64.976C54.49 62.2453 55.514 60.2613 57.562 59.024C59.6527 57.7867 63.4713 57.168 69.018 57.168C71.066 57.168 73.1993 57.3173 75.418 57.616L75.29 56.208C75.1193 54.5013 74.3087 53.1573 72.858 52.176C71.4073 51.152 69.5513 50.64 67.29 50.64C65.0287 50.64 62.7673 51.344 60.506 52.752L57.69 43.472C61.3593 41.9787 65.5407 41.232 70.234 41.232C74.9273 41.232 78.6393 42.2987 81.37 44.432C84.1007 46.5227 85.466 49.808 85.466 54.288C85.466 55.312 85.4233 56.1227 85.338 56.72L83.546 74.384L77.21 74.96L76.25 65.68H75.738C74.2873 68.752 72.282 71.1627 69.722 72.912C67.162 74.6187 64.218 75.472 60.89 75.472ZM75.674 60.304L72.282 60.24C69.466 60.24 67.162 60.3893 65.37 60.688C64.7727 61.8827 64.474 62.9493 64.474 63.888C64.474 64.8267 64.602 65.7227 64.858 66.576C65.114 67.4293 65.3913 68.0053 65.69 68.304C70.81 67.4933 74.138 64.8267 75.674 60.304ZM95.647 33.68C101.919 31.76 107.807 30.8 113.311 30.8C118.858 30.8 123.274 31.824 126.559 33.872C127.284 36.048 127.647 38.1387 127.647 40.144C127.647 44.624 125.727 48.2933 121.887 51.152C124.319 53.0293 126.218 55.1627 127.583 57.552C128.991 59.9413 129.695 62.16 129.695 64.208C129.695 67.5787 128.138 70.3307 125.023 72.464C121.908 74.5973 117.044 75.664 110.431 75.664C106.676 75.664 102.964 75.408 99.295 74.896L95.647 33.68ZM106.143 70.16C108.49 70.8 110.73 71.12 112.863 71.12C114.996 71.12 116.404 70.992 117.087 70.736C118.58 67.7493 119.327 64.7413 119.327 61.712C119.327 58.64 118.623 56.016 117.215 53.84C114.655 54.992 111.434 56.016 107.551 56.912L106.143 70.16ZM117.279 42.384C117.279 41.0187 116.98 39.632 116.383 38.224C115.786 36.7733 114.954 35.6853 113.887 34.96C112.906 34.96 111.54 35.216 109.791 35.728L107.935 53.264C110.794 52.112 113.055 50.5333 114.719 48.528C116.426 46.48 117.279 44.432 117.279 42.384ZM158.825 52.944C155.923 52.944 153.726 53.968 152.233 56.016C150.739 58.0213 149.651 61.7333 148.969 67.152L148.073 74.384L141.737 74.96L138.473 43.216L152.169 41.104L150.889 51.344H151.337C154.75 44.0053 159.102 40.1013 164.393 39.632L162.601 53.264C161.022 53.0507 159.763 52.944 158.825 52.944ZM195.607 62.224C195.607 66.8747 194.583 70.2667 192.535 72.4C190.53 74.4907 186.796 75.536 181.335 75.536C175.874 75.536 171.607 74.2987 168.535 71.824C167.895 68.752 167.575 65.68 167.575 62.608C167.575 59.536 168.002 56.656 168.855 53.968C169.751 51.2373 170.86 48.912 172.183 46.992C174.956 43.0667 177.431 40.5707 179.607 39.504C183.703 41.5947 187.308 44.432 190.423 48.016C193.879 51.9413 195.607 56.6773 195.607 62.224ZM188.183 60.496C188.183 56.4427 187.33 52.7307 185.623 49.36C182.082 51.2373 179.159 54.096 176.855 57.936C174.551 61.776 173.399 65.6587 173.399 69.584C174.764 69.84 176.727 69.968 179.287 69.968C181.847 69.968 184.471 69.52 187.159 68.624C187.842 66.0213 188.183 63.312 188.183 60.496ZM213.341 69.968C217.437 69.968 221.298 69.264 224.925 67.856L226.845 74.064C223.858 75.0453 220.722 75.536 217.437 75.536C214.151 75.536 211.25 75.1733 208.733 74.448C206.215 73.7653 204.295 72.8693 202.973 71.76C202.333 68.688 202.013 65.8293 202.013 63.184C202.013 57.8507 203.207 53.008 205.597 48.656C208.029 44.304 210.823 41.2533 213.981 39.504L225.053 46.736C219.677 49.6373 215.453 53.0933 212.381 57.104C209.309 61.072 207.773 65.232 207.773 69.584C209.565 69.84 211.421 69.968 213.341 69.968ZM236.89 75.472C236.165 75.472 235.631 75.4507 235.29 75.408C233.839 74.4267 232.666 72.976 231.77 71.056C230.917 69.0933 230.49 67.0667 230.49 64.976C230.49 62.2453 231.514 60.2613 233.562 59.024C235.653 57.7867 239.471 57.168 245.018 57.168C247.066 57.168 249.199 57.3173 251.418 57.616L251.29 56.208C251.119 54.5013 250.309 53.1573 248.858 52.176C247.407 51.152 245.551 50.64 243.29 50.64C241.029 50.64 238.767 51.344 236.506 52.752L233.69 43.472C237.359 41.9787 241.541 41.232 246.234 41.232C250.927 41.232 254.639 42.2987 257.37 44.432C260.101 46.5227 261.466 49.808 261.466 54.288C261.466 55.312 261.423 56.1227 261.338 56.72L259.546 74.384L253.21 74.96L252.25 65.68H251.738C250.287 68.752 248.282 71.1627 245.722 72.912C243.162 74.6187 240.218 75.472 236.89 75.472ZM251.674 60.304L248.282 60.24C245.466 60.24 243.162 60.3893 241.37 60.688C240.773 61.8827 240.474 62.9493 240.474 63.888C240.474 64.8267 240.602 65.7227 240.858 66.576C241.114 67.4293 241.391 68.0053 241.69 68.304C246.81 67.4933 250.138 64.8267 251.674 60.304Z" fill="#F8F8F8"/>
<rect x="188" y="95.2085" width="10" height="10" transform="rotate(-12.6153 188 95.2085)" fill="#FF2C54"/>
<rect x="246.552" y="82.1042" width="10" height="10" transform="rotate(-12.6153 246.552 82.1042)" fill="#FF2C54"/>
<rect x="250.92" y="101.621" width="10" height="10" transform="rotate(-12.6153 250.92 101.621)" fill="#FF2C54"/>
<rect x="199.943" y="102.783" width="10" height="10" transform="rotate(-12.6153 199.943 102.783)" fill="#FF2C54"/>
<rect x="258.494" y="89.6788" width="10" height="10" transform="rotate(-12.6153 258.494 89.6788)" fill="#FF2C54"/>
<rect x="219.46" y="98.4149" width="10" height="10" transform="rotate(-12.6153 219.46 98.4149)" fill="#FF2C54"/>
<rect x="238.977" y="94.0469" width="10" height="10" transform="rotate(-12.6153 238.977 94.0469)" fill="#FF2C54"/>
<rect x="207.517" y="90.8404" width="10" height="10" transform="rotate(-12.6153 207.517 90.8404)" fill="#FF2C54"/>
<rect x="266.069" y="77.7362" width="10" height="10" transform="rotate(-12.6153 266.069 77.7362)" fill="#FF2C54"/>
<rect x="270.437" y="97.2533" width="10" height="10" transform="rotate(-12.6153 270.437 97.2533)" fill="#FF2C54"/>
<rect x="227.034" y="86.4723" width="10" height="10" transform="rotate(-12.6153 227.034 86.4723)" fill="#FF2C54"/>
<rect x="231.402" y="105.989" width="10" height="10" transform="rotate(-12.6153 231.402 105.989)" fill="#FF2C54"/>
<rect x="197.759" y="93.0244" width="10" height="10" transform="rotate(-12.6153 197.759 93.0244)" fill="white"/>
<rect x="256.31" y="79.9202" width="10" height="10" transform="rotate(-12.6153 256.31 79.9202)" fill="white"/>
<rect x="260.678" y="99.4374" width="10" height="10" transform="rotate(-12.6153 260.678 99.4374)" fill="white"/>
<rect x="190.184" y="104.967" width="10" height="10" transform="rotate(-12.6153 190.184 104.967)" fill="white"/>
<rect x="248.736" y="91.8628" width="10" height="10" transform="rotate(-12.6153 248.736 91.8628)" fill="white"/>
<rect x="209.701" y="100.599" width="10" height="10" transform="rotate(-12.6153 209.701 100.599)" fill="white"/>
<rect x="268.253" y="87.4947" width="10" height="10" transform="rotate(-12.6153 268.253 87.4947)" fill="white"/>
<rect x="272.621" y="107.012" width="10" height="10" transform="rotate(-12.6153 272.621 107.012)" fill="white"/>
<rect x="229.218" y="96.2309" width="10" height="10" transform="rotate(-12.6153 229.218 96.2309)" fill="white"/>
<rect x="217.276" y="88.6564" width="10" height="10" transform="rotate(-12.6153 217.276 88.6564)" fill="white"/>
<rect x="275.827" y="75.5521" width="10" height="10" transform="rotate(-12.6153 275.827 75.5521)" fill="white"/>
<rect x="236.793" y="84.2883" width="10" height="10" transform="rotate(-12.6153 236.793 84.2883)" fill="white"/>
<rect x="241.161" y="103.805" width="10" height="10" transform="rotate(-12.6153 241.161 103.805)" fill="white"/>
</g>
<defs>
<clipPath id="clip0_1_229">
<rect width="276" height="105" fill="white"/>
</clipPath>
</defs>
</svg>
